<mxfile host="app.diagrams.net" modified="2023-07-19T09:24:15.205Z" agent="Mozilla/5.0 (Windows NT 10.0; Win64; x64) AppleWebKit/537.36 (KHTML, like Gecko) Chrome/115.0.0.0 Safari/537.36" etag="4Gw6OgN_vD_V5zYLKGES" version="21.6.2" type="device">
  <diagram name="Page-1" id="jTXnP5EDODgPQkfzNVG3">
    <mxGraphModel dx="1434" dy="693" grid="1" gridSize="10" guides="1" tooltips="1" connect="1" arrows="1" fold="1" page="1" pageScale="1" pageWidth="827" pageHeight="1169" math="0" shadow="0">
      <root>
        <mxCell id="0" />
        <mxCell id="1" parent="0" />
        <mxCell id="_YkHg0DTGd_QuGl7lF-i-1" value="선택한 지역&lt;br&gt;좌표의&lt;br&gt;카카오지도(API)" style="ellipse;whiteSpace=wrap;html=1;" vertex="1" parent="1">
          <mxGeometry x="170" y="160" width="140" height="70" as="geometry" />
        </mxCell>
        <mxCell id="_YkHg0DTGd_QuGl7lF-i-2" value="사용자" style="shape=umlActor;verticalLabelPosition=bottom;verticalAlign=top;html=1;outlineConnect=0;" vertex="1" parent="1">
          <mxGeometry x="30" y="150" width="30" height="60" as="geometry" />
        </mxCell>
        <mxCell id="_YkHg0DTGd_QuGl7lF-i-3" value="&amp;lt;&amp;lt;include&amp;gt;&amp;gt;" style="html=1;verticalAlign=bottom;labelBackgroundColor=none;endArrow=open;endFill=0;dashed=1;rounded=0;exitX=0.5;exitY=0;exitDx=0;exitDy=0;entryX=0;entryY=0.614;entryDx=0;entryDy=0;entryPerimeter=0;" edge="1" parent="1" source="_YkHg0DTGd_QuGl7lF-i-1" target="_YkHg0DTGd_QuGl7lF-i-4">
          <mxGeometry width="160" relative="1" as="geometry">
            <mxPoint x="360" y="70" as="sourcePoint" />
            <mxPoint x="320" y="110" as="targetPoint" />
          </mxGeometry>
        </mxCell>
        <mxCell id="_YkHg0DTGd_QuGl7lF-i-4" value="선택한 지역 좌표와&lt;br&gt;마커종류로&lt;br&gt;마커들 배치" style="ellipse;whiteSpace=wrap;html=1;" vertex="1" parent="1">
          <mxGeometry x="320" y="50" width="140" height="70" as="geometry" />
        </mxCell>
        <mxCell id="_YkHg0DTGd_QuGl7lF-i-5" value="마커의&lt;br&gt;게시글리스트&lt;br&gt;보기" style="ellipse;whiteSpace=wrap;html=1;" vertex="1" parent="1">
          <mxGeometry x="380" y="160" width="140" height="70" as="geometry" />
        </mxCell>
        <mxCell id="_YkHg0DTGd_QuGl7lF-i-6" value="마커선택" style="ellipse;whiteSpace=wrap;html=1;" vertex="1" parent="1">
          <mxGeometry x="540" y="60" width="140" height="70" as="geometry" />
        </mxCell>
        <mxCell id="_YkHg0DTGd_QuGl7lF-i-7" value="&amp;lt;&amp;lt;extend&amp;gt;&amp;gt;" style="html=1;verticalAlign=bottom;labelBackgroundColor=none;endArrow=open;endFill=0;dashed=1;rounded=0;entryX=1;entryY=0.5;entryDx=0;entryDy=0;exitX=0;exitY=0.5;exitDx=0;exitDy=0;" edge="1" parent="1" source="_YkHg0DTGd_QuGl7lF-i-5" target="_YkHg0DTGd_QuGl7lF-i-1">
          <mxGeometry width="160" relative="1" as="geometry">
            <mxPoint x="330" y="260" as="sourcePoint" />
            <mxPoint x="490" y="260" as="targetPoint" />
          </mxGeometry>
        </mxCell>
        <mxCell id="_YkHg0DTGd_QuGl7lF-i-8" value="&amp;lt;&amp;lt;include&amp;gt;&amp;gt;" style="html=1;verticalAlign=bottom;labelBackgroundColor=none;endArrow=open;endFill=0;dashed=1;rounded=0;exitX=0.786;exitY=0.071;exitDx=0;exitDy=0;exitPerimeter=0;" edge="1" parent="1" source="_YkHg0DTGd_QuGl7lF-i-5" target="_YkHg0DTGd_QuGl7lF-i-6">
          <mxGeometry width="160" relative="1" as="geometry">
            <mxPoint x="250" y="170" as="sourcePoint" />
            <mxPoint x="330" y="103" as="targetPoint" />
          </mxGeometry>
        </mxCell>
        <mxCell id="_YkHg0DTGd_QuGl7lF-i-9" value="마커의&lt;br&gt;게시글리스트&lt;br&gt;보기" style="ellipse;whiteSpace=wrap;html=1;" vertex="1" parent="1">
          <mxGeometry x="570" y="170" width="140" height="70" as="geometry" />
        </mxCell>
      </root>
    </mxGraphModel>
  </diagram>
</mxfile>
